HIERARCHY
ROOT pelvis
{
    OFFSET 0.0 81.65318298339844 0.0
    CHANNELS 6 Xposition Yposition Zposition Zrotation Yrotation Xrotation

    JOINT left_hip
    {
        OFFSET -6.2579450607299805 -2.8619766235351562 -6.082245349884033
        CHANNELS 3 Zrotation Yrotation Xrotation

        JOINT left_knee
        {
            OFFSET -10.52141284942627 -37.62826156616211 -5.4377875328063965
            CHANNELS 3 Zrotation Yrotation Xrotation

            JOINT left_ankle
            {
                OFFSET -1.2680931091308594 -32.763328552246094 -26.660234451293945
                CHANNELS 3 Zrotation Yrotation Xrotation

                JOINT left_foot
                {
                    OFFSET -5.379339218139648 -6.57317590713501 12.382387161254883
                    CHANNELS 3 Zrotation Yrotation Xrotation

                    End Site
                    {
                        OFFSET 0 0 0
                    }
                }
            }
        }
    }

    JOINT right_hip
    {
        OFFSET 6.0297465324401855 -3.8543472290039062 -5.498012542724609
        CHANNELS 3 Zrotation Yrotation Xrotation

        JOINT right_knee
        {
            OFFSET 11.248929977416992 -28.07082748413086 26.73432159423828
            CHANNELS 3 Zrotation Yrotation Xrotation

            JOINT right_ankle
            {
                OFFSET -4.283781051635742 -36.05206298828125 -24.044275283813477
                CHANNELS 3 Zrotation Yrotation Xrotation

                JOINT right_foot
                {
                    OFFSET 7.5921173095703125 -7.391049861907959 9.666322708129883
                    CHANNELS 3 Zrotation Yrotation Xrotation

                    End Site
                    {
                        OFFSET 0 0 0
                    }
                }
            }
        }
    }

    JOINT spine1
    {
        OFFSET 0.17806538939476013 17.08795166015625 3.612271308898926
        CHANNELS 3 Zrotation Yrotation Xrotation

        JOINT spine2
        {
            OFFSET 1.249693512916565 2.197723388671875 12.80622386932373
            CHANNELS 3 Zrotation Yrotation Xrotation

            JOINT spine3
            {
                OFFSET 0.7521204948425293 0.8242340087890625 6.035947799682617
                CHANNELS 3 Zrotation Yrotation Xrotation

                JOINT left_collar
                {
                    OFFSET -6.274387359619141 4.2811737060546875 11.080110549926758
                    CHANNELS 3 Zrotation Yrotation Xrotation

                    JOINT left_shoulder
                    {
                        OFFSET -12.916934967041016 0.13520050048828125 2.974414825439453
                        CHANNELS 3 Zrotation Yrotation Xrotation

                        JOINT left_elbow
                        {
                            OFFSET -14.962116241455078 -6.8835601806640625 -17.14424705505371
                            CHANNELS 3 Zrotation Yrotation Xrotation

                            JOINT left_wrist
                            {
                                OFFSET 17.82318878173828 -22.764846801757812 7.387216567993164
                                CHANNELS 3 Zrotation Yrotation Xrotation

                                End Site
                                {
                                    OFFSET 0 0 0
                                }
                            }
                        }
                    }
                }

                JOINT right_collar
                {
                    OFFSET 9.095366477966309 5.121147155761719 8.748212814331055
                    CHANNELS 3 Zrotation Yrotation Xrotation

                    JOINT right_shoulder
                    {
                        OFFSET 11.573535919189453 2.6248321533203125 0.1194305419921875
                        CHANNELS 3 Zrotation Yrotation Xrotation

                        JOINT right_elbow
                        {
                            OFFSET 3.9623241424560547 5.1966705322265625 -26.987993240356445
                            CHANNELS 3 Zrotation Yrotation Xrotation

                            JOINT right_wrist
                            {
                                OFFSET -1.7527885437011719 -27.968368530273438 -6.491111755371094
                                CHANNELS 3 Zrotation Yrotation Xrotation

                                End Site
                                {
                                    OFFSET 0 0 0
                                }
                            }
                        }
                    }
                }

                JOINT neck
                {
                    OFFSET 3.039973020553589 10.840873718261719 19.669397354125977
                    CHANNELS 3 Zrotation Yrotation Xrotation

                    JOINT head
                    {
                        OFFSET -0.6560630798339844 4.12078857421875 9.417743682861328
                        CHANNELS 3 Zrotation Yrotation Xrotation

                        End Site
                        {
                            OFFSET 0 0 0
                        }
                    }
                }
            }
        }
    }

}

MOTION
Frames: 17
Frame Time: 0.050000
0.000000 81.653183 0.000000 0.000000 0.000000 0.000000 0.000000 0.000000 0.000000 0.000000 0.000000 0.000000 0.000000 0.000000 0.000000 0.000000 0.000000 0.000000 0.000000 0.000000 0.000000 0.000000 0.000000 0.000000 0.000000 0.000000 0.000000 0.000000 0.000000 0.000000 0.000000 0.000000 0.000000 0.000000 0.000000 0.000000 0.000000 0.000000 0.000000 0.000000 0.000000 0.000000 0.000000 0.000000 0.000000 0.000000 0.000000 0.000000 0.000000 0.000000 0.000000 0.000000 0.000000 0.000000 0.000000 0.000000 0.000000 0.000000 0.000000 0.000000 0.000000 0.000000 0.000000 0.000000 0.000000 0.000000 0.000000 0.000000 0.000000
-1.728868 83.790138 6.950904 0.000000 0.000000 -0.000000 -1.075132 0.875628 7.722318 -1.779352 -1.194180 -9.013133 8.584003 5.966060 2.656734 0.000000 0.000000 -0.000000 -0.149786 0.765444 -2.100532 0.127278 0.813067 -5.852020 4.532254 -2.235925 -2.846348 0.000000 0.000000 -0.000000 11.264677 -2.943927 -2.250657 -2.765572 1.262273 -0.092875 0.000000 0.000000 -0.000000 -0.467917 -2.415807 0.394466 1.486745 0.331795 -3.428833 7.274072 1.790280 -0.060775 0.000000 0.000000 -0.000000 1.984226 -2.230334 1.511290 1.503962 1.316603 0.310858 2.067790 0.770334 -1.502825 0.000000 0.000000 -0.000000 -2.195737 0.955690 -2.676264 0.000000 0.000000 -0.000000
-3.606997 86.741051 15.283659 0.000000 0.000000 -0.000000 -2.001579 1.770511 14.769803 -4.098342 -3.724953 -15.322566 20.661352 15.706253 7.738319 0.000000 0.000000 -0.000000 -4.241118 -1.105450 -2.194540 2.146747 6.317777 -14.972885 8.851851 -5.923959 -5.585717 0.000000 0.000000 -0.000000 24.578333 -8.252141 -5.577227 -7.085993 4.036714 0.701526 0.000000 0.000000 -0.000000 -1.024458 -5.074068 0.853184 3.445331 2.073976 -6.848672 9.940946 0.702413 -0.736057 0.000000 0.000000 -0.000000 3.653222 -5.528531 2.490856 2.628032 1.607229 -1.464299 6.041426 2.087717 -1.995205 0.000000 0.000000 -0.000000 -6.402671 2.681152 -5.828958 0.000000 0.000000 -0.000000
-5.754089 88.047714 25.074078 0.000000 0.000000 -0.000000 -1.984662 2.672289 17.286244 -4.991182 -6.043906 -10.098957 26.852631 26.707817 15.734342 0.000000 0.000000 -0.000000 -11.123521 -6.855136 2.233412 5.243588 13.391251 -19.545619 -2.202729 -8.164543 -7.458297 0.000000 0.000000 -0.000000 31.911857 -13.518774 -8.841945 -6.778804 5.565092 0.409799 0.000000 0.000000 -0.000000 -3.210694 -5.008902 2.556042 3.716449 3.033597 -10.805764 6.401939 -1.850831 -2.554115 0.000000 0.000000 -0.000000 2.800202 -8.735398 0.989792 1.770904 1.324288 -4.891078 10.431607 3.980506 -2.416928 0.000000 0.000000 -0.000000 -5.172558 3.528661 -11.316244 0.000000 0.000000 -0.000000
-8.082561 87.149117 35.524654 0.000000 0.000000 -0.000000 -0.678687 3.654514 14.268834 -3.331713 -6.920530 7.159585 31.771699 26.972226 16.325699 0.000000 0.000000 -0.000000 -15.431290 -11.801115 6.238618 4.327410 17.129091 -16.029637 -5.427428 -2.614120 -7.803466 0.000000 0.000000 -0.000000 35.320246 -19.848271 -13.520956 -2.228194 6.023887 -0.933712 0.000000 0.000000 -0.000000 -6.455638 -0.815531 5.128975 2.078593 1.884213 -16.038720 -3.720640 -6.465903 -6.670970 0.000000 0.000000 -0.000000 -0.538645 -11.411802 -2.905111 -0.809109 2.290111 -9.792089 14.379294 7.141168 -0.429231 0.000000 0.000000 -0.000000 -6.240083 5.123698 -16.649037 0.000000 0.000000 -0.000000
-10.445240 84.561661 45.806316 0.000000 0.000000 -0.000000 2.285347 3.789186 3.075556 0.801724 -6.182480 37.170733 35.449758 20.780551 15.620892 0.000000 0.000000 -0.000000 -18.252289 -17.433855 11.755460 3.257265 19.327275 -14.083805 4.245721 9.731563 -8.569447 0.000000 0.000000 -0.000000 39.783626 -27.018547 -17.821790 0.003421 6.824537 -2.488386 0.000000 0.000000 -0.000000 -9.912828 7.377145 8.039466 -1.571543 0.031896 -20.645904 -21.360006 -11.612191 -12.433087 0.000000 0.000000 -0.000000 -6.974907 -10.187887 -9.293845 -5.617646 3.999837 -16.932763 13.213172 7.516167 2.233996 0.000000 0.000000 -0.000000 -5.947046 6.613807 -23.341280 0.000000 0.000000 -0.000000
-12.758437 81.369225 55.727596 0.000000 0.000000 -0.000000 7.645996 3.563759 -14.614633 6.635266 -5.200513 68.776565 37.647470 13.569246 16.141161 0.000000 0.000000 -0.000000 -19.352081 -23.376593 18.594023 3.154362 21.664028 -13.506320 13.523732 22.048079 -8.379545 0.000000 0.000000 -0.000000 42.653326 -31.612576 -20.180879 0.980441 7.373747 -3.609739 0.000000 0.000000 -0.000000 -13.120557 17.807174 10.949616 -6.817619 -1.649402 -21.087785 -48.136709 -15.343267 -20.435625 0.000000 0.000000 -0.000000 -15.246846 -4.370127 -16.880688 -12.432383 7.883603 -25.360908 4.488328 5.062878 6.599226 0.000000 0.000000 -0.000000 -3.590758 7.193716 -30.607766 0.000000 0.000000 -0.000000
-14.960298 80.018356 66.369453 0.000000 0.000000 -0.000000 12.440307 1.529693 -32.280507 10.735484 -4.328773 80.848424 37.273170 3.880238 10.476508 0.000000 0.000000 -0.000000 -17.398233 -31.579779 30.924505 9.662602 25.205319 -23.411636 1.240790 23.351774 -11.996292 0.000000 0.000000 -0.000000 46.564855 -37.115456 -22.390029 5.778668 7.000380 -1.533782 0.000000 0.000000 -0.000000 -18.082158 30.293587 15.615301 -13.109955 -4.477408 -20.845328 -76.767646 -14.868582 -29.495871 0.000000 0.000000 -0.000000 -19.799184 7.049491 -19.271249 -19.652166 10.607728 -36.282719 -22.286380 -3.488199 9.333014 0.000000 0.000000 -0.000000 0.673044 5.670358 -34.450137 0.000000 0.000000 -0.000000
-16.938984 82.781517 78.846062 0.000000 0.000000 -0.000000 18.268643 -0.099597 -47.348125 13.708118 -10.685942 67.713360 27.943110 4.134632 2.573122 0.000000 0.000000 -0.000000 -7.067165 -36.454380 50.144904 20.210329 21.807312 -39.101660 -28.705434 12.238813 -17.047745 0.000000 0.000000 -0.000000 50.714463 -43.822243 -24.937010 13.472498 5.188192 2.684838 0.000000 0.000000 -0.000000 -24.154618 42.132697 21.517287 -18.871806 -9.021099 -21.175115 -96.408682 -9.854199 -35.274907 0.000000 0.000000 -0.000000 -19.689951 19.496536 -15.554847 -27.061517 10.855717 -48.720602 -59.416423 -12.706433 10.516551 0.000000 0.000000 -0.000000 7.556608 1.888239 -35.338476 0.000000 0.000000 -0.000000
-18.951057 87.635345 92.978561 0.000000 0.000000 -0.000000 18.689609 -0.934309 -50.322672 10.096799 -11.537907 34.118808 -10.008714 10.071875 -5.301829 0.000000 0.000000 -0.000000 4.152138 -38.230116 69.445179 29.900139 16.672471 -55.150097 -61.477031 -16.525173 -21.042263 0.000000 0.000000 -0.000000 49.851567 -49.718501 -29.779792 20.308956 2.969394 6.490764 0.000000 0.000000 -0.000000 -28.110715 53.150692 25.679303 -21.818313 -10.667266 -19.783855 -116.295636 -5.025976 -37.773115 0.000000 0.000000 -0.000000 -18.480986 29.543135 -10.263033 -32.497131 11.457430 -55.262903 -95.638429 -22.298684 8.355600 0.000000 0.000000 -0.000000 13.184566 -1.317490 -35.180234 0.000000 0.000000 -0.000000
-20.937328 89.150909 107.761658 0.000000 0.000000 -0.000000 17.998715 0.702335 -44.695035 8.439943 -7.811324 6.249977 -74.366490 17.579874 -11.045069 0.000000 0.000000 -0.000000 4.625710 -38.850367 70.828758 27.095370 22.552002 -47.960007 -64.232588 -32.153027 -16.109264 0.000000 0.000000 -0.000000 46.052147 -53.058058 -34.977216 23.943856 1.844670 9.235934 0.000000 0.000000 -0.000000 -24.583278 57.115447 22.559604 -20.149185 -4.389547 -19.354867 -134.354336 -3.854167 -37.554472 0.000000 0.000000 -0.000000 -18.221677 35.287542 -7.082390 -35.547605 11.987324 -57.202743 -100.864354 -25.524505 10.978270 0.000000 0.000000 -0.000000 13.199583 -1.352385 -34.622496 0.000000 0.000000 -0.000000
-22.626530 86.972221 121.840050 0.000000 0.000000 -0.000000 18.847107 2.170265 -42.043391 10.527589 -5.931529 9.445256 -61.510693 14.163083 -9.018497 0.000000 0.000000 -0.000000 -1.017027 -35.856839 58.609518 11.892332 25.834642 -20.483447 -49.100601 -23.105603 -2.937305 0.000000 0.000000 -0.000000 41.501565 -52.774621 -38.118576 24.641685 0.266850 5.754239 0.000000 0.000000 -0.000000 -17.016651 55.138594 15.408872 -16.611369 1.040431 -20.575446 -137.409223 -5.474353 -35.133293 0.000000 0.000000 -0.000000 -17.119670 33.382320 -6.862193 -33.174590 10.636965 -55.309499 -82.570783 -22.109317 15.686789 0.000000 0.000000 -0.000000 10.960661 -0.019215 -35.743487 0.000000 0.000000 -0.000000
-23.945522 82.463745 134.764511 0.000000 0.000000 -0.000000 17.780574 1.720782 -41.554052 13.571185 -2.872310 27.239157 -57.941407 -2.385698 -11.563543 0.000000 0.000000 -0.000000 -7.253083 -26.449849 37.852577 -3.728322 19.669466 12.635422 -41.333548 -9.359333 6.707996 0.000000 0.000000 -0.000000 43.239673 -50.152712 -34.698491 23.944049 -0.411780 2.957955 0.000000 0.000000 -0.000000 -4.542746 49.379295 3.772113 -10.945009 1.612869 -22.369949 -127.499645 -5.137397 -31.187525 0.000000 0.000000 -0.000000 -16.153370 27.176608 -8.696630 -27.944431 7.021288 -46.629073 -48.383658 -11.890986 19.726019 0.000000 0.000000 -0.000000 7.578760 2.052095 -36.891706 0.000000 0.000000 -0.000000
-25.218573 79.527596 147.533768 0.000000 0.000000 -0.000000 14.773545 3.359453 -31.762056 11.490481 -1.114843 30.443301 -52.818848 -13.854431 -11.895004 0.000000 0.000000 -0.000000 -11.440478 -13.349098 13.029288 -8.964959 14.559427 29.251120 -35.988721 0.901198 7.793545 0.000000 0.000000 -0.000000 45.175325 -46.764887 -30.665860 21.753402 1.463295 4.247500 0.000000 0.000000 -0.000000 2.960329 36.858989 -2.958442 -3.947965 0.294187 -27.424207 -88.235592 -4.935736 -26.094332 0.000000 0.000000 -0.000000 -13.271875 15.692877 -9.709592 -19.879589 -1.535279 -32.545559 -7.470756 3.817796 20.462200 0.000000 0.000000 -0.000000 4.615237 3.581268 -35.409024 0.000000 0.000000 -0.000000
-26.789934 78.686432 161.444077 0.000000 0.000000 -0.000000 9.424576 6.079535 -12.463320 6.644975 0.655532 18.665814 -28.346780 -13.771129 -9.851581 0.000000 0.000000 -0.000000 -10.773549 -2.137610 -6.320579 -4.897292 14.993964 16.475589 -8.129396 2.749641 5.944102 0.000000 0.000000 -0.000000 39.765524 -46.021191 -33.749344 16.707850 5.527357 6.090036 0.000000 0.000000 -0.000000 0.181341 21.335185 -0.351694 1.737043 -1.257706 -32.989140 -2.521108 2.151532 -22.942423 0.000000 0.000000 -0.000000 -7.463794 -1.330595 -7.987106 -8.095987 -0.529043 -18.191773 11.447579 12.260963 12.318659 0.000000 0.000000 -0.000000 -4.160300 7.820550 -31.953718 0.000000 0.000000 -0.000000
-28.551340 81.171501 177.395432 0.000000 0.000000 -0.000000 4.307790 8.848813 8.851479 1.109060 -0.337961 2.337646 4.565445 -4.311142 -5.974705 0.000000 0.000000 -0.000000 -6.899373 1.851642 -11.351480 6.909216 14.639282 -23.316209 53.609187 -8.965973 -2.547261 0.000000 0.000000 -0.000000 28.802569 -47.861100 -43.599689 13.285673 9.131188 6.669981 0.000000 0.000000 -0.000000 -5.971257 7.570157 4.814077 5.774348 -2.966591 -39.173210 73.045749 12.218440 -22.305707 0.000000 0.000000 -0.000000 -1.085549 -18.131256 -4.672239 -0.749013 5.059933 -9.564804 25.135198 16.080825 2.867398 0.000000 0.000000 -0.000000 -11.332131 11.181943 -30.084565 0.000000 0.000000 -0.000000
-30.478022 81.885773 194.923233 0.000000 0.000000 -0.000000 2.311437 10.036100 17.771830 -1.377286 -3.490382 0.139371 18.950674 9.483194 6.262056 0.000000 0.000000 -0.000000 -10.258957 -1.621080 -6.891165 16.184712 11.806325 -54.505533 143.341867 -18.473932 -8.178751 0.000000 0.000000 -0.000000 18.764431 -50.352754 -54.744081 10.228157 11.785317 3.243638 0.000000 0.000000 -0.000000 -12.989177 -0.038270 10.341537 6.477107 -9.318418 -51.304662 85.421466 7.838543 -26.463275 0.000000 0.000000 -0.000000 -3.454105 -28.428081 -8.753354 -0.886737 1.310448 -13.150797 46.867128 18.870488 -3.287078 0.000000 0.000000 -0.000000 -11.999483 11.526287 -30.037873 0.000000 0.000000 -0.000000
